<?xml version="1.0" encoding="UTF-8"?>
<svg id="Camada_1" xmlns="http://www.w3.org/2000/svg" version="1.1" viewBox="0 0 300 55">
  <!-- Generator: Adobe Illustrator 29.3.1, SVG Export Plug-In . SVG Version: 2.1.0 Build 151)  -->
  <defs>
    <style>
      .st0 {
        fill: #1d1d1d;
      }
    </style>
  </defs>
  <path class="st0" d="M182.69,5.92s-3.06,1.21-6.61,5.12c-3.55,3.91-5.62,8.3-4.09,9.47.59.44,1.95.53,4.41-1.69,2.27-1.97,4.06-4.43,5.21-7.21,1.59-3.87,1.08-5.64,1.08-5.69M202.14,12.95c-3.95-2.02-6.84-4.49-9.84-6.02-2.87-1.47-4.72-2.08-7.03-1.77-.32.06-.64.14-.96.24,0,0,1.19,4.06-3.55,10.89-4.81,6.92-9.17,6.87-10.41,4.97-1.3-2.01.38-6.09,3.18-9.73,2.93-3.81,8.09-6.96,8.09-6.96,0,0-1.64-1-5.68,1.28-3.93,2.21-10.71,7.5-17,16.42-6.29,8.92-7.53,13.82-8.43,17.68s-.08,8,4.21,8,9.29-6.53,10.7-8.8c2.62-4.23,4.33-10.72.76-9.83-1.76.44-3.18,2.38-4.08,4.25-.57,1.2-1,2.46-1.29,3.75-1.25.51-2.42,1.19-3.48,2.02-1.18.87-2.29,1.85-3.3,2.91,0,0,.02-3.09,2.48-8.08,2.47-5,7-7.28,9.56-7.49,2.31-.18,5.32,1.77,2.77,8.99-2.55,7.22-10.07,15.99-17.97,16.1-7.29.1-12.06-9.18-1.91-25.38,11.23-17.9,24.4-23.39,28.68-24,4.28-.61,5.67,1.27,5.67,1.27,2.57-1.05,5.36-1.51,8.13-1.34,5.22.35,9.26,4.04,14.59,6.63-1.39,1.32-2.71,2.71-3.9,4.01M225.6,6.92c-3.62,2.32-8.63,4.41-13.44,3.97-1.22,1.26-2.52,2.71-3.83,4.3,8.35,1.65,15.66-3.51,19.54-7.9,1.42-1.58,2.63-3.33,3.62-5.2-1.77,1.84-3.75,3.46-5.9,4.84M214.49,30.37c.06-.11.11-.23.15-.35-.02-.19-.11-.37-.25-.5-.14-.13-.32-.21-.51-.23-.79-.04-1.88.11-4.72,3.25-2.36,2.59-4.39,5.47-6.04,8.55-1.63,2.97-2.29,5.18-1.35,5.75.3.16.66.19.99.1.63-.15,1.35-.74,2.44-2,.51-.59,1.08-1.43,1.76-2.36,1.88-2.55,6.61-10.59,7.54-12.22h0ZM184.95,33.79c.48-1.24,1.08-3.67-.18-4.62-1.35-1.01-4.79,1.36-4.81,3.8-.02,2.49,2.42,3.62,3.01,3.78.33.09.45.08.61-.19.52-.89.98-1.82,1.37-2.77ZM182.35,38.33c-.85-.39-1.65-.9-2.36-1.5-.72-.6-1.32-1.33-1.77-2.15-.05-.08-.1-.02-.15.05-.05.07-.26.26-2.1,2.94-1.83,2.68-4.65,8.23-2.1,9.18,1.63.6,4.35-2.25,5.83-4.14,1.01-1.32,1.92-2.71,2.74-4.15.08-.16,0-.2-.08-.23M211.27,44.74c-.69,1.1-1.48,3.22.79,1.91,2.79-1.6,6.75-7.61,6.75-7.61h1.8c-1.64,2.51-3.46,4.9-5.45,7.14-2.82,3.12-6.26,5.95-8.69,5.67-2.83-.33-1.95-4.04-1.95-4.04,0,0-4.05,4.3-6.86,3.99-3.79-.42-2.63-5.09-2.63-5.09,0,0-4.28,5.24-7.2,5.08-4.57-.26-3.42-5.81-2.15-9.72.68-2.09,1.31-3.73,1.31-3.73,0,0-.45.12-1.43.26-.51.07-1.44.12-1.44.12,0,0-1.9,3.35-3.43,5.37s-8,8.96-11.81,7.57c-3.52-1.28-2.36-6.67-.31-10.94,2.99-6.24,11.42-15.19,16.27-14.01,5.04,1.22.11,10.38.11,10.38,0,0,0,.03.05.06.1.04.36.07.97-.05.63-.13,1.24-.31,1.84-.55,0,0,5.06-10.57,10.65-17.49,5.59-6.92,16.75-18.83,21.12-15.95,1.06.71.58,3.15-.86,6.11-.65.21-1.31.39-1.98.53.96-1.75,1.6-3.22,1.79-4.25.66-3.57-7.71,3.96-13.68,12.06-3.6,4.88-6.8,10.05-9.57,15.44,1.08-.66,2.11-1.39,3.09-2.2,2.67-2.21,5.2-4.57,7.59-7.07,2.3-2.35,4.46-4.83,6.46-7.44.64-.03,1.27-.1,1.9-.2-2.18,2.96-4.57,5.76-7.13,8.4-2.38,2.41-4.97,4.99-7.21,6.87-2,1.7-4.12,3.26-6.32,4.69,0,0-5.23,10.52-2.38,11.19,1.67.4,4.97-4.67,4.97-4.67,0,0,4.31-6.56,6.91-9.52,3.54-4.02,6.59-6.34,9.64-6.39,1.78-.03,2.82,1.85,2.82,1.85l.84-1.29h5.14s-9.6,16.25-10.37,17.47M225.6,6.92c-3.62,2.32-8.63,4.41-13.44,3.97-1.22,1.26-2.52,2.71-3.83,4.3,8.35,1.65,15.66-3.51,19.54-7.9,1.42-1.58,2.64-3.33,3.63-5.2-1.77,1.84-3.75,3.46-5.9,4.84h0ZM153.4,14.89h-4.89l-2.76,4.45h4.89l2.76-4.45ZM130.25,30.32c2.08-2.84,7.82-12.81,7.82-12.81-.02-.19-.11-.37-.25-.5s-.32-.21-.51-.23c-.79-.04-2.12.23-4.75,3.52-2.63,3.29-4.68,5.9-6.16,8.62-1.63,2.97-2.35,5.06-1.41,5.63.3.15.65.19.98.1.61-.15,1.41-.76,2.5-2.02.51-.59,1.1-1.38,1.78-2.31h0ZM104.01,16.84c-1.35-1.02-4.79,1.36-4.81,3.8-.02,2.5,3.09,3.26,3.5,3.28.12.01.24-.01.34-.07.07-.04.13-.1.16-.18.37-.72.69-1.45.99-2.2.47-1.24,1.08-3.67-.18-4.62h0ZM101.98,25.44c-.93-.29-1.82-.7-2.65-1.22-.8-.52-1.45-1.24-1.89-2.09-.05-.08-.1-.02-.15.05-.05.07-.32.42-2.16,3.11-1.84,2.69-4.56,8.19-2.01,9.14,1.63.62,4.38-2.26,5.87-4.14,1.12-1.48,2.15-3.02,3.09-4.61.06-.16,0-.2-.09-.23M141.91,27.09h1.79s-8.98,12.95-14.04,12.35c-2.83-.33-1.99-3.81-1.99-3.81,0,0-3.97,4.64-7.63,3.7-3.31-.85-1.17-6.34-1.17-6.34-.38.15-7.54,8.21-12.58,6.28-5.27-2.03-2.53-8.78-1.53-10.81.85-1.71,1.79-3.38,1.79-3.38,0,0-.81.23-1.32.34s-1.26.26-1.26.26c0,0-2.49,4.04-4.02,6.06-1.52,2.02-8,8.95-11.82,7.57-3.82-1.38-2.87-6.71-.73-10.94,3.48-6.86,11.73-15.29,16.7-14.01,5.02,1.28.86,9.4.86,9.4,0,0,1,.13,3.39-1.5,3.44-2.34,7.99-8.65,12.92-7.91,2.32.35,4.48,2.72,1.53,7.21-.94,1.44-2.53,2.73-3.74,1.46-.75-.79-.1-2.24.7-3.23.31-.4.71-.72,1.17-.93s.97-.31,1.48-.27c0,0,.81-1.85-1.26-1.82-1.68.03-5.92,3.93-8.31,7.86-2.19,3.61-5.52,9.76-2.18,11.1,3.06,1.23,8.89-5.67,11.58-9.28s8.85-11.8,14-12.13c1.78-.12,2.83,1.5,2.83,1.5l.6-.94h5.16s-9.71,16.17-10.47,17.39c-.6.96-1.39,3.11.79,1.9,2.18-1.2,6.76-7.07,6.76-7.07,0,0,0,0,0,0ZM139.1,53c-3.8-2.62-8.34-3.94-12.96-3.77-1.25.03-2.47.36-3.57.96s-2.04,1.44-2.75,2.46c-1.97-3.42-5.85-5.53-11.86-5.48-9.71.11-19.35,4.58-26.98,4.57-7.31,0-12.65-4.59-12.48-12.73.32-14.29,12.43-27.16,21.47-32.95,5.21-3.33,9.57-4.32,12.42-4,2.08.23,4.58,2.62,3,6.15-2.32,5.16-5.51,4.73-5.4,2.27.07-1.6,1.14-2.61,1.94-3.17.51-.35,1.42-.45,1.89-.46.46-.39.79-3.21-2.92-2.28-3.71.93-8.22,4.58-12.49,9.29s-10.94,13.62-12.58,22.98c-.77,4.34-.26,12.25,10.05,12.16,8.74-.07,21.64-5.81,33.48-5.7,4.6.04,8.6,1.28,11.72,3.2,3.06,1.88,6.74,4.63,8.04,6.51"/>
  <path class="st0" d="M182.69,5.92s-3.06,1.21-6.61,5.12c-3.55,3.91-5.62,8.3-4.09,9.47.59.44,1.95.53,4.41-1.69,2.27-1.97,4.06-4.43,5.21-7.21,1.59-3.87,1.08-5.64,1.08-5.69M202.14,12.95c-3.95-2.02-6.84-4.49-9.84-6.02-2.87-1.47-4.72-2.08-7.03-1.77-.32.06-.64.14-.96.24,0,0,1.19,4.06-3.55,10.89-4.81,6.92-9.17,6.87-10.41,4.97-1.3-2.01.38-6.09,3.18-9.73,2.93-3.81,8.09-6.96,8.09-6.96,0,0-1.64-1-5.68,1.28-3.93,2.21-10.71,7.5-17,16.42-6.29,8.92-7.53,13.82-8.43,17.68s-.08,8,4.21,8,9.29-6.53,10.7-8.8c2.62-4.23,4.33-10.72.76-9.83-1.76.44-3.18,2.38-4.08,4.25-.57,1.2-1,2.46-1.29,3.75-1.25.51-2.42,1.19-3.48,2.02-1.18.87-2.29,1.85-3.3,2.91,0,0,.02-3.09,2.48-8.08,2.47-5,7-7.28,9.56-7.49,2.31-.18,5.32,1.77,2.77,8.99-2.55,7.22-10.07,15.99-17.97,16.1-7.29.1-12.06-9.18-1.91-25.38,11.23-17.9,24.4-23.39,28.68-24,4.28-.61,5.67,1.27,5.67,1.27,2.57-1.05,5.36-1.51,8.13-1.34,5.22.35,9.26,4.04,14.59,6.63-1.39,1.32-2.71,2.71-3.9,4.01M225.6,6.92c-3.62,2.32-8.63,4.41-13.44,3.97-1.22,1.26-2.52,2.71-3.83,4.3,8.35,1.65,15.66-3.51,19.54-7.9,1.42-1.58,2.63-3.33,3.62-5.2-1.77,1.84-3.75,3.46-5.9,4.84M214.49,30.37c.06-.11.11-.23.15-.35-.02-.19-.11-.37-.25-.5-.14-.13-.32-.21-.51-.23-.79-.04-1.88.11-4.72,3.25-2.36,2.59-4.39,5.47-6.04,8.55-1.63,2.97-2.29,5.18-1.35,5.75.3.16.66.19.99.1.63-.15,1.35-.74,2.44-2,.51-.59,1.08-1.43,1.76-2.36,1.88-2.55,6.61-10.59,7.54-12.22h0ZM184.95,33.79c.48-1.24,1.08-3.67-.18-4.62-1.35-1.01-4.79,1.36-4.81,3.8-.02,2.49,2.42,3.62,3.01,3.78.33.09.45.08.61-.19.52-.89.98-1.82,1.37-2.77ZM182.35,38.33c-.85-.39-1.65-.9-2.36-1.5-.72-.6-1.32-1.33-1.77-2.15-.05-.08-.1-.02-.15.05-.05.07-.26.26-2.1,2.94-1.83,2.68-4.65,8.23-2.1,9.18,1.63.6,4.35-2.25,5.83-4.14,1.01-1.32,1.92-2.71,2.74-4.15.08-.16,0-.2-.08-.23M211.27,44.74c-.69,1.1-1.48,3.22.79,1.91,2.79-1.6,6.75-7.61,6.75-7.61h1.8c-1.64,2.51-3.46,4.9-5.45,7.14-2.82,3.12-6.26,5.95-8.69,5.67-2.83-.33-1.95-4.04-1.95-4.04,0,0-4.05,4.3-6.86,3.99-3.79-.42-2.63-5.09-2.63-5.09,0,0-4.28,5.24-7.2,5.08-4.57-.26-3.42-5.81-2.15-9.72.68-2.09,1.31-3.73,1.31-3.73,0,0-.45.12-1.43.26-.51.07-1.44.12-1.44.12,0,0-1.9,3.35-3.43,5.37s-8,8.96-11.81,7.57c-3.52-1.28-2.36-6.67-.31-10.94,2.99-6.24,11.42-15.19,16.27-14.01,5.04,1.22.11,10.38.11,10.38,0,0,0,.03.05.06.1.04.36.07.97-.05.63-.13,1.24-.31,1.84-.55,0,0,5.06-10.57,10.65-17.49,5.59-6.92,16.75-18.83,21.12-15.95,1.06.71.58,3.15-.86,6.11-.65.21-1.31.39-1.98.53.96-1.75,1.6-3.22,1.79-4.25.66-3.57-7.71,3.96-13.68,12.06-3.6,4.88-6.8,10.05-9.57,15.44,1.08-.66,2.11-1.39,3.09-2.2,2.67-2.21,5.2-4.57,7.59-7.07,2.3-2.35,4.46-4.83,6.46-7.44.64-.03,1.27-.1,1.9-.2-2.18,2.96-4.57,5.76-7.13,8.4-2.38,2.41-4.97,4.99-7.21,6.87-2,1.7-4.12,3.26-6.32,4.69,0,0-5.23,10.52-2.38,11.19,1.67.4,4.97-4.67,4.97-4.67,0,0,4.31-6.56,6.91-9.52,3.54-4.02,6.59-6.34,9.64-6.39,1.78-.03,2.82,1.85,2.82,1.85l.84-1.29h5.14s-9.6,16.25-10.37,17.47M225.6,6.92c-3.62,2.32-8.63,4.41-13.44,3.97-1.22,1.26-2.52,2.71-3.83,4.3,8.35,1.65,15.66-3.51,19.54-7.9,1.42-1.58,2.64-3.33,3.63-5.2-1.77,1.84-3.75,3.46-5.9,4.84h0ZM153.4,14.89h-4.89l-2.76,4.45h4.89l2.76-4.45ZM130.25,30.32c2.08-2.84,7.82-12.81,7.82-12.81-.02-.19-.11-.37-.25-.5s-.32-.21-.51-.23c-.79-.04-2.12.23-4.75,3.52-2.63,3.29-4.68,5.9-6.16,8.62-1.63,2.97-2.35,5.06-1.41,5.63.3.15.65.19.98.1.61-.15,1.41-.76,2.5-2.02.51-.59,1.1-1.38,1.78-2.31h0ZM104.01,16.84c-1.35-1.02-4.79,1.36-4.81,3.8-.02,2.5,3.09,3.26,3.5,3.28.12.01.24-.01.34-.07.07-.04.13-.1.16-.18.37-.72.69-1.45.99-2.2.47-1.24,1.08-3.67-.18-4.62h0ZM101.98,25.44c-.93-.29-1.82-.7-2.65-1.22-.8-.52-1.45-1.24-1.89-2.09-.05-.08-.1-.02-.15.05-.05.07-.32.42-2.16,3.11-1.84,2.69-4.56,8.19-2.01,9.14,1.63.62,4.38-2.26,5.87-4.14,1.12-1.48,2.15-3.02,3.09-4.61.06-.16,0-.2-.09-.23M141.91,27.09h1.79s-8.98,12.95-14.04,12.35c-2.83-.33-1.99-3.81-1.99-3.81,0,0-3.97,4.64-7.63,3.7-3.31-.85-1.17-6.34-1.17-6.34-.38.15-7.54,8.21-12.58,6.28-5.27-2.03-2.53-8.78-1.53-10.81.85-1.71,1.79-3.38,1.79-3.38,0,0-.81.23-1.32.34s-1.26.26-1.26.26c0,0-2.49,4.04-4.02,6.06-1.52,2.02-8,8.95-11.82,7.57-3.82-1.38-2.87-6.71-.73-10.94,3.48-6.86,11.73-15.29,16.7-14.01,5.02,1.28.86,9.4.86,9.4,0,0,1,.13,3.39-1.5,3.44-2.34,7.99-8.65,12.92-7.91,2.32.35,4.48,2.72,1.53,7.21-.94,1.44-2.53,2.73-3.74,1.46-.75-.79-.1-2.24.7-3.23.31-.4.71-.72,1.17-.93s.97-.31,1.48-.27c0,0,.81-1.85-1.26-1.82-1.68.03-5.92,3.93-8.31,7.86-2.19,3.61-5.52,9.76-2.18,11.1,3.06,1.23,8.89-5.67,11.58-9.28s8.85-11.8,14-12.13c1.78-.12,2.83,1.5,2.83,1.5l.6-.94h5.16s-9.71,16.17-10.47,17.39c-.6.96-1.39,3.11.79,1.9,2.18-1.2,6.76-7.07,6.76-7.07,0,0,0,0,0,0ZM139.1,53c-3.8-2.62-8.34-3.94-12.96-3.77-1.25.03-2.47.36-3.57.96s-2.04,1.44-2.75,2.46c-1.97-3.42-5.85-5.53-11.86-5.48-9.71.11-19.35,4.58-26.98,4.57-7.31,0-12.65-4.59-12.48-12.73.32-14.29,12.43-27.16,21.47-32.95,5.21-3.33,9.57-4.32,12.42-4,2.08.23,4.58,2.62,3,6.15-2.32,5.16-5.51,4.73-5.4,2.27.07-1.6,1.14-2.61,1.94-3.17.51-.35,1.42-.45,1.89-.46.46-.39.79-3.21-2.92-2.28-3.71.93-8.22,4.58-12.49,9.29s-10.94,13.62-12.58,22.98c-.77,4.34-.26,12.25,10.05,12.16,8.74-.07,21.64-5.81,33.48-5.7,4.6.04,8.6,1.28,11.72,3.2,3.06,1.88,6.74,4.63,8.04,6.51"/>
</svg>