<?xml version="1.0" encoding="UTF-8"?>
<svg id="Camada_1" xmlns="http://www.w3.org/2000/svg" version="1.1" viewBox="0 0 300 55">
  <!-- Generator: Adobe Illustrator 29.3.1, SVG Export Plug-In . SVG Version: 2.1.0 Build 151)  -->
  <defs>
    <style>
      .st0 {
        fill: #1d1d1d;
      }
    </style>
  </defs>
  <path class="st0" d="M102.76,21.82v11.48h2.84c1.45,0,2.9-.64,3.89-1.74,1.04-1.1,1.57-2.55,1.57-4.06.06-1.51-.52-2.96-1.57-4.06s-2.43-1.68-3.94-1.68l-2.78.06h0ZM105.6,18.22c5.33,0,9.39,4.12,9.39,9.33s-4.06,9.33-9.39,9.33h-6.32c-.23,0-.46-.23-.46-.46v-17.74c0-.23.23-.46.46-.46h6.32ZM128.73,33.7c2.43,0,4.64-1.51,5.57-3.77.93-2.32.41-4.93-1.28-6.73-1.68-1.74-4.29-2.32-6.55-1.33-2.26.93-3.71,3.19-3.71,5.68,0,3.42,2.67,6.15,5.97,6.15h0ZM128.73,17.82c5.62,0,9.92,4.41,9.92,9.74s-4.29,9.74-9.92,9.74-9.86-4.41-9.86-9.74,4.29-9.74,9.86-9.74ZM152.33,33.7c3.31,0,5.97-2.78,5.97-6.15s-2.67-6.15-5.97-6.15-5.97,2.73-5.97,6.15c0,1.62.64,3.19,1.74,4.35s2.61,1.8,4.23,1.8ZM152.33,17.82c5.62,0,9.92,4.41,9.92,9.74s-4.29,9.74-9.92,9.74-9.92-4.41-9.92-9.74,4.29-9.74,9.92-9.74ZM175.29,21.82h-4.06v4.93h4.06c.64,0,1.28-.23,1.74-.64.46-.46.75-1.1.75-1.74,0-.7-.23-1.33-.7-1.8-.46-.52-1.1-.75-1.8-.75ZM167.35,18.69c0-.23.23-.46.46-.46h7.6c3.65,0,6.26,2.73,6.26,6.15,0,2.32-1.22,4.47-3.25,5.45l3.48,6.38c.12.17.12.35,0,.52-.06.17-.23.23-.4.23h-3.07c-.17,0-.35-.12-.4-.23l-3.36-6.32h-3.36v6.03c0,.23-.17.46-.46.46h-2.96c-.23,0-.46-.23-.46-.46l-.06-17.74h0ZM191.88,21.93v11.48h2.84c1.45,0,2.9-.64,3.88-1.68,1.04-1.1,1.62-2.55,1.57-4.06.06-1.51-.52-2.96-1.57-4.06-1.04-1.1-2.44-1.68-3.94-1.68h-2.78ZM194.72,18.34c5.33,0,9.39,4.12,9.39,9.34s-4.06,9.33-9.39,9.33h-6.32c-.23,0-.46-.23-.46-.46v-17.74c0-.23.23-.46.46-.46h6.32ZM216,22.86l-2.2,6.15h4.41l-2.2-6.15ZM212.52,32.49l-1.45,4.12c-.06.17-.23.35-.46.35h-3.13c-.17,0-.35-.06-.41-.17-.12-.12-.12-.29-.06-.46l6.78-17.74c.06-.17.23-.29.46-.29h3.54c.23,0,.41.12.46.29l6.78,17.74c.06.17.06.35-.06.46s-.23.23-.41.17h-3.13c-.23,0-.41-.12-.46-.35l-1.45-4.12h-7.02,0ZM228.64,23.27c0-2.96,2.49-5.45,6.38-5.45,2.09-.06,4.12.75,5.68,2.2.17.17.17.46,0,.64l-1.74,1.8c-.17.17-.46.17-.64,0-.81-.75-1.91-1.22-3.01-1.22-1.57,0-2.73.93-2.73,2.03,0,3.48,9.22,1.45,9.22,8.18,0,3.36-2.49,5.97-6.9,5.97-2.49,0-4.87-.93-6.61-2.73-.17-.17-.17-.46,0-.64l1.68-1.74c.17-.17.46-.17.64,0,1.04,1.04,2.49,1.62,4,1.68,1.97,0,3.25-1.04,3.25-2.43.06-3.59-9.22-1.57-9.22-8.29h0ZM258.56,18.69v7.02h-7.83v-7.02c0-.23-.17-.46-.46-.46h-2.9c-.23,0-.46.23-.46.46v17.74c0,.23.23.46.46.46h2.96c.23,0,.46-.23.46-.46v-7.13h7.83v7.13c0,.23.23.46.46.46h2.96c.23,0,.46-.23.46-.46v-17.74c0-.23-.17-.46-.46-.46h-2.96c-.29,0-.52.23-.52.46ZM82.17,20.6c-2.03-3.83-6.09-6.2-10.44-6.15h-33.11c-.46,0-.87.29-1.04.7-.17.41-.06.93.23,1.22l7.19,7.13c.64.64,1.51.99,2.43.99h23.37c1.68,0,3.01,1.28,3.01,2.96s-1.33,2.96-2.96,3.01h-16.12c-.46,0-.87.29-1.04.7-.17.41-.06.93.23,1.22l7.19,7.19c.64.64,1.51.99,2.43.99h7.31c9.45-.06,16.58-10.03,11.31-19.95h0Z"/>
</svg>