<svg width="649" height="108" viewBox="0 0 649 108" fill="none" xmlns="http://www.w3.org/2000/svg">
<path d="M64.5977 66.2688C64.5977 89.297 83.1416 107.963 106.019 107.963C128.896 107.963 147.44 89.297 147.44 66.2688C147.44 43.2406 128.896 24.5742 106.019 24.5742C83.1416 24.5742 64.5977 43.2406 64.5977 66.2688ZM106.019 95.1342C90.1805 95.1342 77.3426 82.2116 77.3426 66.2688C77.3426 50.326 90.1805 37.4033 106.019 37.4033C121.857 37.4033 134.695 50.326 134.695 66.2688C134.695 82.2116 121.857 95.1342 106.019 95.1342Z" fill="#1D1D1D"/>
<path d="M64.594 12.8291L64.594 0L0.869141 0L0.869141 106.909L13.6141 106.909L13.6141 65.2146L9.36578 64.68L9.36578 64.1455L13.6141 64.1455L53.9732 64.1455L53.9732 51.3164L13.6141 51.3164L13.6141 12.8291L64.594 12.8291Z" fill="#1D1D1D"/>
<path d="M504.3 12.8291L504.3 0L440.575 0L440.575 106.909L453.32 106.909L453.32 65.2146L449.072 64.68V64.1455L453.32 64.1455L493.679 64.1455L493.679 51.3164L453.32 51.3164L453.32 12.8291L504.3 12.8291Z" fill="#1D1D1D"/>
<path d="M177.184 25.6797C166.627 25.6797 158.067 34.2966 158.067 44.9233L158.067 106.931L170.812 106.931L170.812 39.5779L166.564 39.0433V38.5088L211.171 38.5088L211.171 25.6797L177.184 25.6797Z" fill="#1D1D1D"/>
<path d="M308.874 24.5742C297.786 24.5742 287.866 29.607 281.241 37.5236C276.348 29.7406 267.721 24.5742 257.894 24.5742C249.472 24.5742 241.726 27.4795 235.585 32.3438L235.059 37.4888L234.528 37.4888L234.528 33.2125L234.528 25.6433L221.783 25.6433L221.783 106.894L234.528 106.894L234.528 60.9233C234.528 47.9339 244.99 37.4033 257.894 37.4033C266.106 37.4033 272.763 44.1038 272.763 52.3706L272.763 106.894L285.508 106.894L285.508 60.9233C285.508 47.9339 295.97 37.4033 308.874 37.4033C317.086 37.4033 323.743 44.1038 323.743 52.3706L323.743 106.894L336.488 106.894L336.488 52.3706C336.488 37.0184 324.125 24.5742 308.874 24.5742Z" fill="#1D1D1D"/>
<path d="M561.652 25.6797L561.652 71.6506C561.652 84.6401 551.19 95.1706 538.286 95.1706C530.073 95.1706 523.417 88.4701 523.417 80.2033L523.417 25.6797L510.672 25.6797L510.672 80.2033C510.672 95.5555 523.034 108 538.286 108C546.708 108 554.453 105.094 560.595 100.23L561.121 95.0851H561.652V99.3614L561.652 106.931L574.397 106.931L574.397 25.6797L561.652 25.6797Z" fill="#1D1D1D"/>
<path d="M621.121 24.5742C612.702 24.5742 604.957 27.4768 598.815 32.3412L598.287 37.4888L597.756 37.4888V33.2125V25.6433L585.011 25.6433L585.011 106.894L597.756 106.894L597.756 60.9233C597.756 47.9339 608.217 37.4033 621.121 37.4033C629.334 37.4033 635.991 44.1038 635.991 52.3706L635.991 106.894L648.736 106.894L648.736 52.3706C648.736 37.0184 636.373 24.5742 621.121 24.5742Z" fill="#1D1D1D"/>
<path d="M429.95 51.3191L417.205 51.3191L417.205 55.3255C417.205 64.1214 414.369 72.2492 409.571 78.8401L389.16 50.7257L395.78 46.722C403.684 41.9645 408.525 33.377 408.525 24.1053V24.0465H408.52C408.283 10.7283 397.482 0 384.19 0C370.84 0 360.001 10.8192 359.855 24.2203C359.799 29.3813 361.48 34.4087 364.494 38.5835L365.811 40.409L370.569 46.9999L360.32 53.198C352.123 58.1559 347.107 67.0775 347.107 76.7046C347.107 93.9758 361.015 107.976 378.173 107.976C388.818 107.976 398.709 104.742 406.934 99.1983L404.882 95.4512L405.312 95.1358L407.808 98.5943L413.806 106.904L429.95 106.904L423.577 98.1266L421.413 95.1438L417.499 89.7556C425.261 80.6416 429.95 68.8014 429.95 55.86L429.95 51.3137V51.3191ZM384.331 12.8318C390.727 12.9093 395.902 18.3135 395.777 24.7521C395.692 29.1568 393.361 33.2193 389.599 35.4938L381.609 40.3261L377.969 42.5285L377.695 42.0714L380.988 39.4709L374.599 30.6696C373.298 28.8788 372.597 26.7166 372.597 24.4982C372.597 18.0062 377.865 12.7516 384.333 12.8318H384.331ZM377.642 95.1491C367.818 95.1491 359.852 87.131 359.852 77.2419C359.852 71.7868 362.693 66.7327 367.337 63.9236L378.088 57.4209L400.193 88.045C393.794 92.5219 386.025 95.1465 377.642 95.1465V95.1491Z" fill="#1D1D1D"/>
<path d="M641.458 0V0.807164L639.188 0.807164V6.78071L638.266 6.78071V0.807164L635.996 0.807164V0L641.458 0Z" fill="#1D1D1D"/>
<path d="M642.273 0L643.58 0L645.518 5.733L647.44 0L648.739 0V6.78071L647.868 6.78071V2.77697C647.868 2.63798 647.87 2.40813 647.876 2.09007C647.881 1.76935 647.884 1.42724 647.884 1.06107L645.961 6.78071L645.056 6.78071L643.115 1.06107V1.26955C643.115 1.43526 643.12 1.68916 643.128 2.0286C643.136 2.36804 643.141 2.61927 643.141 2.77964V6.78338L642.271 6.78338V0L642.273 0Z" fill="#1D1D1D"/>
</svg>
