<?xml version="1.0" encoding="UTF-8"?>
<svg id="Camada_1" xmlns="http://www.w3.org/2000/svg" version="1.1" viewBox="0 0 300 55">
  <!-- Generator: Adobe Illustrator 29.3.1, SVG Export Plug-In . SVG Version: 2.1.0 Build 151)  -->
  <defs>
    <style>
      .st0 {
        fill: #1d1d1d;
      }
    </style>
  </defs>
  <path class="st0" d="M128.24,17.14c-6.4,0-11.62,4.87-11.62,11.58s5.21,11.58,11.62,11.58,11.62-4.91,11.62-11.58-5.22-11.58-11.62-11.58ZM128.24,35.73c-3.51,0-6.53-2.89-6.53-7.02s3.02-7.02,6.53-7.02,6.53,2.85,6.53,7.02-3.02,7.02-6.53,7.02Z"/>
  <path class="st0" d="M153.3,17.14c-6.4,0-11.62,4.87-11.62,11.58s5.22,11.58,11.62,11.58,11.62-4.91,11.62-11.58-5.21-11.58-11.62-11.58ZM153.3,35.73c-3.51,0-6.53-2.89-6.53-7.02s3.02-7.02,6.53-7.02,6.53,2.85,6.53,7.02-3.02,7.02-6.53,7.02Z"/>
  <path class="st0" d="M184.1,19.73h-.18c-1.14-1.36-3.34-2.59-6.1-2.59-5.79,0-11.09,5.08-11.09,11.62s5.3,11.53,11.09,11.53c2.77,0,4.96-1.23,6.1-2.63h.18v1.67c0,4.43-2.36,6.79-6.18,6.79-3.11,0-5.04-2.22-5.83-4.11l-4.43,1.84c1.27,3.07,4.65,6.82,10.26,6.82,5.96,0,11.01-3.49,11.01-12.04v-20.78h-4.83v1.89h0ZM178.28,35.73c-3.51,0-6.45-2.94-6.45-6.97s2.94-7.06,6.45-7.06,6.18,2.98,6.18,7.06-2.72,6.97-6.18,6.97Z"/>
  <rect class="st0" x="191.93" y="5.65" width="4.96" height="33.93"/>
  <path class="st0" d="M210.52,35.73c-2.58,0-4.43-1.18-5.61-3.51l15.48-6.41-.53-1.32c-.96-2.58-3.9-7.37-9.91-7.37s-10.92,4.69-10.92,11.58c0,6.49,4.91,11.58,11.49,11.58,5.3,0,8.37-3.25,9.65-5.13l-3.95-2.63c-1.32,1.93-3.11,3.21-5.7,3.21ZM210.12,21.61h0c2.01,0,3.73,1.01,4.3,2.45l-10.35,4.3c-.13-4.47,3.47-6.75,6.05-6.75Z"/>
  <polygon class="st0" points="97.85 20.79 97.85 20.79 97.85 20.79 97.85 20.79"/>
  <path class="st0" d="M97.85,20.79v4.91h11.74c-.36,2.7-1.27,4.69-2.66,6.08-1.71,1.71-4.39,3.6-9.08,3.6-7.24,0-12.9-5.83-12.9-13.07s5.66-13.07,12.9-13.07c3.9,0,6.76,1.53,8.86,3.51l3.47-3.47c-2.93-2.8-6.84-4.95-12.32-4.95-9.91,0-18.24,8.07-18.24,17.98s8.33,17.98,18.24,17.98c5.35,0,9.38-1.75,12.54-5.04,3.25-3.25,4.26-7.8,4.26-11.49,0-1.1-.08-2.11-.24-2.96h-16.57Z"/>
</svg>