<svg width="300" height="300" viewBox="0 0 300 300" fill="none" xmlns="http://www.w3.org/2000/svg">
<path d="M50 45C50 39.4772 54.4772 35 60 35H240.375C245.898 35 250.375 39.4772 250.375 45V82.25C250.375 87.7728 245.898 92.25 240.375 92.25H50V45Z" fill="black"/>
<path d="M84.3499 92.25C63.5991 93.5985 58.1473 99.6842 49.9999 112.082L49.9999 72.418L84.3499 92.25Z" fill="black"/>
<circle cx="85.7812" cy="142.344" r="35.7812" fill="black"/>
<path d="M107.25 170.969L84.35 106.562L178.812 106.562L107.25 170.969Z" fill="black"/>
<circle cx="214.594" cy="228.219" r="35.7812" transform="rotate(-180 214.594 228.219)" fill="black"/>
<path d="M193.125 199.594L216.025 264H121.562L193.125 199.594Z" fill="black"/>
<rect x="75.8413" y="219.21" width="156.773" height="49.0866" transform="rotate(-42 75.8413 219.21)" fill="black"/>
<circle cx="85.7812" cy="228.219" r="35.7812" fill="black"/>
<circle cx="214.594" cy="142.344" r="35.7812" fill="black"/>
<path d="M216.025 178.125C199.972 177.36 191.362 180.204 177.381 193.869C163.401 207.534 124.121 198.474 125.856 191.006C129.35 175.963 203.143 119.444 203.143 119.444C203.143 119.444 232.079 178.891 216.025 178.125Z" fill="black"/>
<path d="M50 180.987V229.65L118.7 221.062V180.987C91.22 200.452 61.45 189.098 50 180.987Z" fill="black"/>
</svg>
