<?xml version="1.0" encoding="UTF-8"?>
<svg id="Camada_1" xmlns="http://www.w3.org/2000/svg" version="1.1" viewBox="0 0 300 55">
  <!-- Generator: Adobe Illustrator 29.3.1, SVG Export Plug-In . SVG Version: 2.1.0 Build 151)  -->
  <defs>
    <style>
      .st0 {
        fill: #1d1d1d;
        fill-rule: evenodd;
      }
    </style>
  </defs>
  <path class="st0" d="M111.12,21.13c0,9.47-4.81,16.96-12.05,16.96s-12.16-7.17-12.16-17.07,4.81-16.96,12.05-16.96,12.16,7.17,12.16,17.07ZM119.06,20.86c0-10.65-8.22-19.1-20-19.1-10.86,0-20.1,7.7-20.1,19.52,0,10.65,8.21,19.1,20,19.1,10.86,0,20.1-7.7,20.1-19.52ZM136.57,24.71c0,3.75-1.73,6.95-4.43,6.95s-4.65-2.84-4.65-7.17c0-3.69,1.73-6.95,4.48-6.95,2.54,0,4.59,2.83,4.59,7.17ZM154.95,10c0-2.68-2.43-4.65-6.92-4.65-6.16,0-10.92,3.96-10.92,10,0,.48.05.86.05,1.23-1.6-.65-3.3-.97-5.03-.96-4.86,0-10.7,2.94-10.7,9.31.03,1.52.48,2.99,1.29,4.28.81,1.28,1.95,2.32,3.31,3-4.32.59-6.81,2.89-6.81,6.47s2.92,6.26,8.38,5.62l7.89-.96c3.95-.48,5.24.91,5.24,2.94,0,3.53-3.35,6.37-8.7,6.37-4.27,0-5.84-1.5-5.84-3.64,0-.32.05-.75.05-1.07.02-.29-.02-.58-.12-.85-.1-.27-.25-.52-.45-.73-.2-.21-.44-.38-.7-.49-.27-.11-.55-.17-.84-.17-.34-.01-.68.05-.99.18-.31.13-.59.33-.82.57-.23.25-.41.54-.51.86-.11.32-.14.66-.11,1,0,3.53,3.41,6.69,10.38,6.69,7.84,0,12.81-5.03,12.81-10.81,0-4.6-3.73-7.12-8.86-6.47l-9.03,1.12c-2.97.37-3.89-.59-3.89-2.09,0-1.77,1.95-3.16,8.7-3.16h.11c4.92,0,10.7-2.94,10.7-9.31,0-2.01-.77-3.95-2.16-5.41-.49-1.03-.71-2.17-.65-3.32,0-4.71,3.24-7.38,6.59-7.38,1.41,0,1.83.21,1.83,1.18,0,.27-.05.48-.05.8.05.88.43,1.71,1.08,2.3.65.6,1.5.92,2.38.9.88-.02,1.72-.38,2.33-1.01.62-.63.96-1.47.97-2.35M171.7,38.09l-2.65-.27c-.19-.02-.37-.12-.49-.27-.12-.15-.18-.34-.16-.53V0l-9.51,2.41v1.12l2.7.86c.19.06.35.19.46.35.11.17.16.36.14.56v31.56c0,.15-.04.29-.11.42-.06.13-.16.25-.27.35-.11.1-.24.17-.38.21-.14.04-.29.06-.43.04l-2.41.05-2.56-.05c-.15.02-.29,0-.43-.04-.14-.04-.27-.11-.38-.21-.11-.1-.2-.21-.27-.35-.06-.13-.1-.28-.11-.42V15.51l-9.51,2.41v1.12l2.7.86c.19.06.35.19.46.35.11.17.16.36.14.56v16.21c.02.19-.04.38-.16.53-.12.15-.3.25-.49.27l-2.22.27v1.71h25.94v-1.71h0ZM221.03,18.08v-1.66h-9.24v1.6l2.16.43c.76.16.97.75.49,1.92l-4.97,11.88c-.22.48-.49.48-.65,0l-4.65-11.88c-.49-1.23-.22-1.76.54-1.92l2.16-.43v-1.6h-19.24v1.6l2.16.43c.76.16,1.03.75.54,1.92l-4.81,12.52c-.22.48-.49.48-.65,0l-4.86-12.52c-.43-1.23-.22-1.76.54-1.92l2.16-.43v-1.6h-12.21v1.66l1.19.27c.36.06.71.21.99.45.29.24.5.54.63.89l8.27,20.12h3.73l8.27-20.12c.43-1.07.92-1.5,1.78-1.5h.32c.38,0,.76.11,1.06.35.31.23.52.56.61.94l8.65,20.86-2.32,5.46c-1.51,3.64-2.65,4.28-4.05,4.28-.59,0-1.24-.11-1.89-.11-.34-.02-.68.02-1.01.13-.32.11-.62.29-.87.52-.25.23-.46.51-.6.82-.14.31-.22.65-.23.99,0,1.44,1.19,2.46,3.08,2.46,2.7,0,5.35-2.14,7.57-7.28l11.78-27.34c.18-.52.49-.98.91-1.32.42-.35.93-.58,1.47-.65l1.19-.21Z"/>
</svg>