<?xml version="1.0" encoding="UTF-8"?>
<svg id="Camada_1" xmlns="http://www.w3.org/2000/svg" version="1.1" viewBox="0 0 300 55">
  <!-- Generator: Adobe Illustrator 29.3.1, SVG Export Plug-In . SVG Version: 2.1.0 Build 151)  -->
  <defs>
    <style>
      .st0 {
        fill: #1d1d1d;
        fill-rule: evenodd;
      }
    </style>
  </defs>
  <path class="st0" d="M222.75,11.53l.07.18h0c1.55,3.94,1.72,8.21-.28,11.62-2.09,3.58-6.33,5.71-10.99,6.37h-.01c-1.22.17-2.45.25-3.68.25-3.29,0-6.62-.46-9.5-1.6-.95,1.5-2.45,2.38-4.02,2.52-5.35.81-9.69,1.58-14.23,2.38-2.11.37-4.26.75-6.58,1.15l-.74.14c-.08.01-.16.02-.23.04-.18.03-.36.06-.56.06-.11,0-.2,0-.28,0-.37,0-.56,0-.98-.1-.13.06-.34.2-.57.35-.37.24-.79.52-1.03.58l-.16.04-.17.03c-2.53.46-5.28,1.01-8.11,1.57-1.15.23-2.32.46-3.49.69l-.2.03c-.3.05-.6.07-.9.07-1.8,0-2.8-.15-4.75-1.36-.1-.06-.38-.29-.45-.38-.08.14-.16.25-.23.36-.13.2-.26.39-.4.68-.44.88-2.07,2.31-3.56,2.69l-.17.05-.17.03c-2.17.53-9.38,2.12-10.69,2.39l-.27.06-.28.03c-2.07.19-3.91-.52-5.26-1.9-.94,1.45-2.14,2.61-3.51,3.92l-.12.11c-4.42,3.83-9.62,6.9-16.84,8.83-3.81,1.02-8.03,1.58-11.46,1.58-7.29,0-11.39-1.78-15.24-4.57l-.13-.1c-3.89-3.01-5.9-8.01-6.46-13.16v-.03c-.5-4.94.51-9.55,3.26-13.68,2.05-3.11,4.89-5.81,8.87-8.08,3.63-2.13,7.41-3.41,12.26-4.4,3.08-.64,6.01-1.1,8.65-1.18,4.7-.14,8.93.17,12.48,1.89.24-.79.89-1.75,1.34-2.19.89-.87,1.75-1.64,3.79-2.15l.22-.06.23-.04c7.57-1.24,13.88-2.27,19.52-3.06h.03c2.57-.34,4.83-.39,6.66-.39,2.29,0,3.67.26,5.36.81.89-1.01,2.31-1.6,4-1.86l.14-.02h.14c6.69-.71,12.87-1.19,21.06-1.7.12,0,.25-.01.38-.01,1.96,0,3.86.86,5.07,2.43.75-.56,2.05-1.28,2.96-1.7,2.34-1.08,5.83-1.66,9.04-1.75h.02c.21,0,.43,0,.64,0,5.58,0,10.68,1.42,14.81,4.47l.06.05c2.56,1.95,4.17,3.94,5.58,6.84l.08.17ZM163.79,7.96c2.5,6.63,4.98,13.25,7.46,20.47h0s.35,1.05,1.48.91c7.87-1.35,15.14-2.47,22.43-3.57.33.04.69-.52.43-1.13-.22-.51-.42-1.02-.62-1.52-.22-.54-.44-1.09-.68-1.65-.58-.97-1.26-.84-1.26-.84-2.04.24-4.06.52-6.09.79-1.7.23-3.41.46-5.16.68-1.02.12-1.38-.89-1.38-.89-.14-.41-.3-.84-.47-1.22-.28-1.12.58-1.14.58-1.14,2.09-.28,4.09-.51,6.08-.74.97-.11,1.93-.22,2.9-.34.65-.11.59-.65.45-1.05-.22-.5-.43-1.01-.64-1.51-.21-.51-.42-1.01-.63-1.5-.58-.92-1.27-.85-1.27-.85-2.69.22-5.39.51-8.17.82-.24.03-.47.05-.71.08-1.01.05-1.36-.85-1.36-.85-.17-.38-.34-.77-.48-1.18-.33-1.05.61-1.04.61-1.04,3.82-.36,7.45-.68,11.11-.98,0,0,.72-.02.46-.96-.23-.47-.44-.96-.65-1.44-.2-.46-.39-.92-.61-1.36-.46-.89-1.24-.82-1.24-.82-7.17.44-14.28.97-21.85,1.76-1.08.17-.7,1.06-.7,1.06ZM144.97,19.91c-.45.15-.11.5-.11.5.93.92,1.85,1.83,2.77,2.74,2.69,2.65,5.34,5.27,8.11,8.12.35.38,1.04.65,1.46.59,3.86-.76,7.53-1.46,11.33-2.15.49-.12.44-.56.44-.56.07-.49-.34-.8-.34-.8-1.71-1.47-3.38-2.88-5.05-4.29-1.49-1.26-2.98-2.51-4.49-3.8.02-.01.04-.02.07-.04.03-.01.05-.03.07-.04.03-.02.07-.04.11-.06.03-.02.07-.03.09-.05.01-.01.03-.02.06-.03.03-.01.07-.03.08-.05,3.24-1.74,4.31-4.11,3.61-6.55-.58-1.93-1.82-3.28-3.17-4.09-2.28-1.36-5.68-1.61-11.84-.79-6.5.9-12.77,1.89-19.18,2.94-1.3.34-1.01,1.3-1.01,1.3,1.88,7.25,3.79,14.58,5.88,22.45,0,0,.19,1.19,1.68,1.05,1.31-.27,2.59-.55,3.87-.83,2.21-.48,4.4-.96,6.65-1.38.61-.16,1.09-.83.85-1.53-1.68-5.7-3.23-10.93-4.82-16.18-.25-.87.26-1.64,1.14-1.82,1.19-.17,2.25-.34,3.44-.54,2.05-.33,4.06-.58,5.02,1.68.19.43.19,1.1-.05,1.64-.79,1.27-2.52,1.84-5.63,2.39-.84.15-1.03.18-1.03.18ZM123.57,39.98c3.86-3.68,5.79-8.19,4.46-13.94h0c-.87-3.56-2.65-6.2-5.45-8.12-4.78-3.19-11.98-4.1-20.36-2.37-4.33.89-8.03,2.23-11.21,4.1-3.28,1.88-5.81,4.06-7.49,6.61-2.1,3.15-2.94,6.46-2.54,10.3.42,3.88,2.06,6.82,4.83,8.96,4.85,3.52,12.7,4.35,22.1,2.07,6-1.45,11.63-4.01,15.67-7.63ZM97.98,37.65c-1.59-1.16-2.59-2.77-2.84-4.65-.34-2.31.35-4.58,2.06-6.51,1.59-1.79,3.8-3.04,6.23-3.6,2.93-.56,5.75-.16,7.95,1.38,1.57,1.11,2.63,2.66,2.96,4.46.39,1.91.02,3.67-.99,5.42-1.45,2.4-4.03,4.17-7.06,4.89-3.08.71-6.06.22-8.31-1.4ZM212.11,24.99c6.38-.9,9.52-5.98,7.4-11.38-1.09-2.24-2.54-3.99-4.48-5.48-3.3-2.44-7.53-3.81-12.5-3.71-5.06.13-8.78,1.77-10.15,4.73-.81,1.81-.69,3.88.43,6.47,1.11,2.55,2.82,4.61,5.13,6.26,3.93,2.71,9.07,3.8,14.18,3.09ZM203.95,17.84c-1.23-.91-2.14-1.94-2.7-3.21h0c-.69-1.52-.61-2.9,0-3.93.66-.96,1.75-1.53,3.17-1.62,1.65-.05,3.47.54,5.05,1.69,1.17.82,1.97,1.92,2.57,3.05.52,1.22.73,2.25.43,3.23-.39,1.33-1.59,2.25-3.22,2.39-1.72.15-3.64-.45-5.3-1.6Z"/>
</svg>