<?xml version="1.0" encoding="UTF-8"?>
<svg id="Camada_1" xmlns="http://www.w3.org/2000/svg" version="1.1" viewBox="0 0 300 55">
  <!-- Generator: Adobe Illustrator 29.3.1, SVG Export Plug-In . SVG Version: 2.1.0 Build 151)  -->
  <defs>
    <style>
      .st0 {
        fill: #1d1d1d;
      }
    </style>
  </defs>
  <path class="st0" d="M84.37,14.5c-9,0-11.06.74-11.15,7.54-.06,4.33-.06,6.59,0,10.92.09,6.8,2.15,7.54,11.15,7.54s11.06-.74,11.15-7.54c.06-4.33.06-6.59,0-10.92-.09-6.8-2.15-7.54-11.15-7.54ZM89.56,32.59c-.01,2.36-.97,2.45-5.2,2.45s-5.18-.09-5.2-2.45c-.02-4.02-.02-6.18,0-10.19.01-2.33,1.31-2.45,5.2-2.45s5.18.12,5.2,2.45c.02,4.02.02,6.18,0,10.19Z"/>
  <polygon class="st0" points="120.76 30.48 120.39 30.48 115.78 14.82 111.72 14.82 107.11 30.48 106.74 30.48 103.14 14.76 96.74 14.76 103.63 40.2 108.78 40.2 113.54 25.99 113.97 25.99 118.72 40.2 123.87 40.2 130.77 14.76 124.37 14.76 120.76 30.48"/>
  <polygon class="st0" points="132.36 40.2 150.54 40.2 150.54 34.81 138.24 34.81 138.24 29.96 148.72 29.96 148.72 24.99 138.24 24.99 138.24 20.15 150.54 20.15 150.54 14.76 132.37 14.76 132.36 40.2"/>
  <path class="st0" d="M170.68,31.81c2.78-1.2,4.25-3.05,4.25-7.79,0-7.44-3-9.26-9.8-9.26h-11.71s0,25.43,0,25.43h5.96v-20.05h5.53c3.08,0,3.98,1.17,3.98,3.95,0,3.09-1.12,4.14-3.78,4.14h-4.31v.12l8.16,11.84h6.66l-5.65-8.16s.7-.23.7-.23Z"/>
  <path class="st0" d="M61.27,14.77h-11.77s0,25.43,0,25.43h5.97v-20.05h5.59c3.08,0,3.92,1.33,3.92,3.95,0,3.25-1.26,4.14-3.92,4.14h-4.11v.12l3.74,5.27h.58c6.99-.06,9.75-2.29,9.75-9.53s-2.55-9.29-9.75-9.34h0Z"/>
  <path class="st0" d="M248.92,37.05c-.87,0-1.59.67-1.59,1.58s.71,1.58,1.59,1.58,1.58-.66,1.58-1.58-.71-1.58-1.58-1.58ZM248.92,39.98c-.76,0-1.31-.57-1.31-1.35s.55-1.35,1.31-1.35,1.31.57,1.31,1.35-.55,1.35-1.31,1.35Z"/>
  <path class="st0" d="M249.5,38.94c-.02-.18-.09-.26-.24-.3h0c.2-.05.28-.19.28-.36,0-.24-.2-.42-.48-.42h-.7v1.48h.3v-.59h.25c.19,0,.28.1.29.25,0,.15.02.32.06.34h.29v-.02c-.05-.02-.04-.18-.06-.39h0ZM249.01,38.53h-.33v-.42h.33c.16,0,.25.09.25.21s-.08.21-.25.21Z"/>
  <polygon class="st0" points="227.57 40.21 245.75 40.21 245.75 34.82 233.44 34.82 233.44 29.9 243.92 29.9 243.92 24.93 233.44 24.93 233.44 20.16 245.75 20.16 245.75 14.77 227.57 14.77 227.57 40.21"/>
  <path class="st0" d="M189.28,14.5c-8.77,0-10.73.69-10.73,7.52v18.18h5.93v-7.45h9.6v7.45h5.93v-18.18c0-6.83-1.95-7.52-10.73-7.52ZM194.08,27.85h-9.6v-5.56c0-2.3,1.23-2.44,4.8-2.45,3.58,0,4.8.15,4.8,2.45v5.56Z"/>
  <path class="st0" d="M213.83,14.77h-10.65v25.44h10.65c8.9,0,10.81-1.62,10.81-8.49v-8.72c0-6.87-1.92-8.23-10.81-8.23h0ZM218.59,31.85c0,2.33-.62,2.97-4.96,2.97h-4.49v-14.66h4.49c3.85,0,4.96.24,4.96,2.58,0,0,0,9.11,0,9.11Z"/>
</svg>