<?xml version="1.0" encoding="UTF-8"?>
<svg id="Camada_1" xmlns="http://www.w3.org/2000/svg" version="1.1" viewBox="0 0 300 55">
  <!-- Generator: Adobe Illustrator 29.3.1, SVG Export Plug-In . SVG Version: 2.1.0 Build 151)  -->
  <defs>
    <style>
      .st0 {
        fill: #1d1d1d;
        fill-rule: evenodd;
      }
    </style>
  </defs>
  <path class="st0" d="M8.02,25.09c-3-.96-4.68-1.63-4.68-4.21,0-2.26,1.97-3.95,4.72-3.95,2.26,0,3.69.89,5,2.96.7,1.08.57,1.91,1.18,1.91.29,0,.38-.16.38-.45,0-.13,0-.25-.03-.41l-.45-3.89c-.03-.29-.13-.45-.22-.45-.19,0-.48.35-.86.35-.44,0-1.88-.99-4.37-.99-4.3,0-7.01,2.48-7.01,5.83,0,3.6,2.1,5.1,6.56,6.4,3.51,1.02,5.29,1.98,5.29,4.78s-2.04,4.84-5.32,4.84c-2.45,0-4.56-1.21-5.54-3.22-.77-1.53-.77-2.45-1.31-2.45-.26,0-.38.16-.38.51,0,.16,0,.35.06.57l.7,3.57c.22,1.15,2.45,2.17,5.61,2.17,4.97,0,7.84-2.68,7.84-6.66,0-2.07-.64-3.66-2.04-4.94-1.12-1.02-2.9-1.59-5.13-2.29Z"/>
  <path class="st0" d="M56.6,37.71c-.92-.37-1.43-1.29-1.98-2.7l-6.51-16.58c-.12-.29-.17-.46-.37-.46-.23,0-.31.12-.46.4l-7.94,16.98c-.49,1-.95,1.71-1.49,2.18-.43.37-.75.36-1.21.17-.92-.38-1.43-1.29-1.98-2.7l-6.51-16.58c-.12-.29-.17-.46-.37-.46-.23,0-.31.12-.46.4l-7.94,16.98c-.49,1-.92,1.75-1.49,2.18-.49.37-1.15.35-1.15.75,0,.2.17.37.34.37.29,0,.83-.17,1.61-.17,1.61,0,2.72.17,3.27.17.32,0,.46-.08.46-.34,0-.49-.54-.32-1.03-.52-.72-.29-1.06-.75-1.06-1.26,0-.43.17-.89.43-1.46l1.41-3.04c.31-.69.52-1.06,1.29-1.06h6.45c.75,0,.97.23,1.23.89l1.49,3.87c.2.49.29.83.29,1.09,0,.52-.32.78-.95,1.01-.4.14-.66.17-.66.52,0,.14.14.35.31.35,1.84-.11,3.52-.22,5.31-.22,1.75,0,4.37.18,4.99.2.32,0,.46-.08.46-.34,0-.49-.54-.32-1.03-.52-.72-.29-1.06-.75-1.06-1.26,0-.43.17-.89.43-1.46l1.41-3.04c.32-.69.52-1.06,1.29-1.06h6.45c.75,0,.98.23,1.23.89l1.49,3.87c.2.49.29.83.29,1.09,0,.52-.31.78-.95,1.01-.4.14-.66.17-.66.52,0,.14.14.35.31.35.26,0,1.12-.2,2.67-.2,1.78,0,2.9.17,3.3.17.26,0,.37-.08.37-.34,0-.49-.66-.32-1.32-.6ZM29.52,29.82h-5.48c-.49,0-.72-.11-.72-.37,0-.14.06-.32.17-.52l3.1-6.62c.12-.23.26-.32.37-.32s.26.12.35.34l2.61,6.71c.09.23.14.37.14.49,0,.17-.2.29-.55.29ZM49.49,29.82h-5.48c-.49,0-.72-.11-.72-.37,0-.14.06-.32.17-.52l3.1-6.62c.11-.23.26-.32.37-.32s.26.12.34.34l2.61,6.71c.09.23.14.37.14.49,0,.17-.2.29-.55.29Z"/>
  <path class="st0" d="M74.02,18.52c-.63,0-1.86.17-3.67.17h-8.95c-1.64,0-2.75-.17-3.38-.17-.69,0-.89.03-.95.6l-.31,2.9c-.03.2-.03.37-.03.49,0,.26.06.37.29.37.46,0,.4-.63.72-1.41.49-1.12,1.09-1.64,2.15-1.64h3.99c.6,0,.8.17.8.72h0v14.45c0,1.52,0,2.15-1.03,2.61-.77.34-1.69.11-1.69.75,0,.26.2.4.54.4.49,0,1.55-.26,3.18-.26,1.35,0,2.44.2,3.27.2.43,0,.63-.14.63-.43,0-.52-.63-.29-1.58-.72-1.03-.46-1.09-1-1.09-2.44v-14.54c0-.6.23-.75.89-.75h3.73c1.12,0,1.95.46,2.32,1.17.31.6.11,1.35.63,1.35.26,0,.35-.2.35-.54v-.2l-.2-2.61c-.03-.34-.2-.49-.6-.49Z"/>
  <path class="st0" d="M86.55,19.01c2.58,0,4.96,1.38,6.6,3.96.54.89.63,1.78,1.15,1.78.26,0,.31-.17.31-.49,0-.17,0-.34-.03-.57l-.29-2.98c-.03-.37-.12-.57-.29-.57-.2,0-.43.26-.66.26-.4,0-.98-.66-2.01-1.12-1.52-.69-3.07-1.03-4.82-1.03-2.9,0-5.19.89-6.94,2.75-1.92,2.04-2.95,4.73-2.95,7.92,0,6.22,3.7,10.12,9.75,10.12,2.98,0,5.45-.74,7.51-2.29l.57-2.35c.06-.23.09-.4.09-.46,0-.23-.11-.4-.26-.4-.49,0-.66,1.15-1.78,2.21-1.55,1.46-3.64,2.29-5.68,2.29-4.45,0-7.83-4.13-7.83-10.3,0-5.25,3.13-8.72,7.54-8.72Z"/>
  <path class="st0" d="M116.21,37.48c-.8-.6-.92-1.41-.92-2.7v-12.45c0-1.18.03-1.89.69-2.47.69-.57,1.64-.37,1.64-.95,0-.2-.17-.37-.46-.37-.2,0-1.18.17-2.9.17-1.35,0-2.41-.17-3.18-.17-.43,0-.6.06-.6.4,0,.55.92.26,1.72.83.83.6.89,1.35.89,2.58v4.36c0,.66-.14.72-.77.72h-9.52c-.63,0-.75-.06-.75-.72v-4.39c0-1.18.03-1.89.69-2.47.69-.57,1.63-.4,1.63-.97,0-.2-.17-.37-.46-.37-.2,0-1.21.17-3.15.17-1.41,0-2.38-.17-2.93-.17-.43,0-.6.09-.6.43,0,.55.92.23,1.72.8.83.6.89,1.35.89,2.58v12.42c0,1.15-.03,1.86-.77,2.52-.72.63-1.55.52-1.55,1.06,0,.23.17.37.46.37.23,0,1.23-.17,2.98-.17,1.15,0,2.18.17,3.1.17.43,0,.6-.06.6-.4,0-.6-.92-.26-1.69-.83-.8-.6-.92-1.41-.92-2.7v-5.59c0-.52.2-.6.75-.6h9.52c.55,0,.77.09.77.6v5.56c0,1.15-.03,1.86-.77,2.52-.72.63-1.55.52-1.55,1.06,0,.23.14.37.43.37.23,0,1.26-.17,3.01-.17,1.15,0,2.18.17,3.1.17.43,0,.6-.06.6-.4,0-.6-.92-.26-1.69-.83Z"/>
  <path class="st0" d="M126.36,37.48c-.8-.6-.89-1.41-.89-2.7v-12.45c0-1.18,0-1.89.66-2.47.69-.57,1.66-.4,1.66-.97,0-.2-.17-.37-.46-.37-.2,0-1.23.17-3.18.17-1.43,0-2.41-.17-2.87-.17-.4,0-.57.09-.57.37,0,.63.86.26,1.63.86.8.6.86,1.35.86,2.58v12.42c0,1.15-.03,1.86-.77,2.52-.72.63-1.55.52-1.55,1.06,0,.23.17.37.46.37.23,0,1.23-.17,3.01-.17,1.18,0,2.18.17,3.1.17.43,0,.6-.06.6-.4,0-.6-.92-.26-1.69-.83Z"/>
  <path class="st0" d="M163.71,37.35c-.26,0-.61.22-1.08.22-.99,0-2.74-1.37-5.61-3.86,1.63-2.49,1.35-3.25,1.55-4.49.23-1.44,2.62-1,2.53-1.93-.05-.5-1.78-.2-3.45-.17-1.24.02-2.36-.13-2.81-.13-.54,0-.83.06-.83.38,0,.54.96.34,1.72.67,1.25.55,1.85.99,1.41,2.86-.13.53-.39,1.13-1.03,2.02-7.52-7.11-11.41-11.28-11.41-13.38,0-1.5,1.02-2.52,2.55-2.52s2.74.77,3.76,2.26c.57.83.57,1.59,1.02,1.59.19,0,.35-.19.35-.54v-.1l-.13-2.74c-.03-.54-.09-.8-.32-.8s-.48.29-.73.29c-.35,0-1.44-.76-3.48-.76-2.87,0-4.88,1.79-4.88,4.24,0,1.21.48,2.33,1.4,3.54-3.35.95-5.33,3.19-5.33,6.5,0,4.88,3.6,8.35,8.73,8.35,2.97,0,5.55-.99,7.78-3.22,2.42,1.98,4.14,3.15,6.02,3.15,1.56,0,2.55-.67,2.55-1.12,0-.16-.12-.32-.32-.32ZM149.01,36.91c-2.23,0-4.4-.89-6.02-2.55-1.5-1.5-2.29-3.38-2.29-5.13,0-2.55,2.08-4.3,3.6-4.3.8,0,1.59,1.08,3.06,2.8,1.5,1.75,3.89,4.21,7.27,7.2-1.56,1.31-3.63,1.97-5.61,1.97Z"/>
  <path class="st0" d="M179,25.09c-3-.96-4.69-1.63-4.69-4.21,0-2.26,1.98-3.95,4.72-3.95,2.26,0,3.7.89,5,2.96.7,1.08.57,1.91,1.18,1.91.29,0,.38-.16.38-.45,0-.13,0-.25-.03-.41l-.45-3.89c-.03-.29-.13-.45-.22-.45-.19,0-.48.35-.86.35-.45,0-1.88-.99-4.37-.99-4.3,0-7.01,2.48-7.01,5.83,0,3.6,2.1,5.1,6.56,6.4,3.51,1.02,5.29,1.98,5.29,4.78s-2.04,4.84-5.32,4.84c-2.45,0-4.56-1.21-5.54-3.22-.77-1.53-.77-2.45-1.31-2.45-.26,0-.38.16-.38.51,0,.16,0,.35.06.57l.7,3.57c.22,1.15,2.45,2.17,5.61,2.17,4.97,0,7.84-2.68,7.84-6.66,0-2.07-.64-3.66-2.04-4.94-1.12-1.02-2.9-1.59-5.13-2.29Z"/>
  <path class="st0" d="M227.57,37.71c-.92-.37-1.43-1.29-1.98-2.7l-6.51-16.58c-.12-.29-.17-.46-.38-.46-.23,0-.32.12-.46.4l-7.95,16.98c-.49,1-.95,1.71-1.49,2.18-.43.37-.75.36-1.21.17-.92-.38-1.43-1.29-1.98-2.7l-6.51-16.58c-.12-.29-.17-.46-.38-.46-.23,0-.31.12-.46.4l-7.95,16.98c-.49,1-.92,1.75-1.49,2.18-.49.37-1.15.35-1.15.75,0,.2.17.37.34.37.29,0,.83-.17,1.61-.17,1.61,0,2.72.17,3.27.17.32,0,.46-.08.46-.34,0-.49-.55-.32-1.03-.52-.72-.29-1.06-.75-1.06-1.26,0-.43.17-.89.43-1.46l1.4-3.04c.32-.69.52-1.06,1.29-1.06h6.45c.75,0,.97.23,1.23.89l1.49,3.87c.2.49.29.83.29,1.09,0,.52-.32.78-.95,1.01-.4.14-.66.17-.66.52,0,.14.14.35.32.35,1.84-.11,3.52-.22,5.31-.22,1.74,0,4.36.18,4.99.2.32,0,.46-.08.46-.34,0-.49-.54-.32-1.03-.52-.72-.29-1.06-.75-1.06-1.26,0-.43.17-.89.43-1.46l1.4-3.04c.32-.69.52-1.06,1.29-1.06h6.45c.75,0,.97.23,1.23.89l1.49,3.87c.2.49.29.83.29,1.09,0,.52-.32.78-.95,1.01-.4.14-.66.17-.66.52,0,.14.14.35.32.35.26,0,1.12-.2,2.67-.2,1.78,0,2.9.17,3.3.17.26,0,.37-.08.37-.34,0-.49-.66-.32-1.32-.6ZM200.49,29.82h-5.48c-.49,0-.72-.11-.72-.37,0-.14.06-.32.17-.52l3.1-6.62c.11-.23.26-.32.37-.32s.26.12.35.34l2.61,6.71c.09.23.14.37.14.49,0,.17-.2.29-.55.29ZM220.46,29.82h-5.48c-.49,0-.71-.11-.71-.37,0-.14.06-.32.17-.52l3.1-6.62c.11-.23.26-.32.37-.32s.26.12.34.34l2.61,6.71c.09.23.14.37.14.49,0,.17-.2.29-.55.29Z"/>
  <path class="st0" d="M244.99,18.52c-.63,0-1.86.17-3.67.17h-8.95c-1.64,0-2.75-.17-3.38-.17-.69,0-.89.03-.95.6l-.32,2.9c-.03.2-.03.37-.03.49,0,.26.06.37.29.37.46,0,.4-.63.72-1.41.49-1.12,1.09-1.64,2.15-1.64h3.99c.6,0,.8.17.8.72v14.45c0,1.52,0,2.15-1.03,2.61-.77.34-1.69.11-1.69.75,0,.26.2.4.54.4.49,0,1.55-.26,3.18-.26,1.35,0,2.44.2,3.27.2.43,0,.63-.14.63-.43,0-.52-.63-.29-1.58-.72-1.03-.46-1.09-1-1.09-2.44v-14.54c0-.6.23-.75.89-.75h3.73c1.12,0,1.95.46,2.32,1.17.32.6.12,1.35.63,1.35.26,0,.35-.2.35-.54v-.2l-.2-2.61c-.03-.34-.2-.49-.6-.49Z"/>
  <path class="st0" d="M257.53,19.01c2.58,0,4.96,1.38,6.6,3.96.54.89.63,1.78,1.15,1.78.26,0,.31-.17.31-.49,0-.17,0-.34-.03-.57l-.29-2.98c-.03-.37-.12-.57-.29-.57-.2,0-.43.26-.66.26-.4,0-.98-.66-2.01-1.12-1.52-.69-3.07-1.03-4.82-1.03-2.9,0-5.19.89-6.94,2.75-1.92,2.04-2.95,4.73-2.95,7.92,0,6.22,3.7,10.12,9.75,10.12,2.98,0,5.45-.74,7.51-2.29l.58-2.35c.06-.23.08-.4.08-.46,0-.23-.12-.4-.26-.4-.49,0-.66,1.15-1.78,2.21-1.55,1.46-3.64,2.29-5.68,2.29-4.45,0-7.83-4.13-7.83-10.3,0-5.25,3.13-8.72,7.54-8.72Z"/>
  <path class="st0" d="M287.18,37.48c-.8-.6-.92-1.41-.92-2.7v-12.45c0-1.18.03-1.89.69-2.47.69-.57,1.63-.37,1.63-.95,0-.2-.17-.37-.46-.37-.2,0-1.18.17-2.9.17-1.35,0-2.41-.17-3.18-.17-.43,0-.6.06-.6.4,0,.55.92.26,1.72.83.83.6.89,1.35.89,2.58v4.36c0,.66-.14.72-.77.72h-9.52c-.63,0-.75-.06-.75-.72v-4.39c0-1.18.03-1.89.69-2.47.69-.57,1.63-.4,1.63-.97,0-.2-.17-.37-.46-.37-.2,0-1.2.17-3.15.17-1.4,0-2.38-.17-2.92-.17-.43,0-.6.09-.6.43,0,.55.92.23,1.72.8.83.6.89,1.35.89,2.58v12.42c0,1.15-.03,1.86-.77,2.52-.72.63-1.55.52-1.55,1.06,0,.23.17.37.46.37.23,0,1.23-.17,2.98-.17,1.15,0,2.18.17,3.1.17.43,0,.6-.06.6-.4,0-.6-.92-.26-1.69-.83-.8-.6-.92-1.41-.92-2.7v-5.59c0-.52.2-.6.75-.6h9.52c.54,0,.77.09.77.6v5.56c0,1.15-.03,1.86-.77,2.52-.72.63-1.55.52-1.55,1.06,0,.23.14.37.43.37.23,0,1.26-.17,3.01-.17,1.15,0,2.18.17,3.1.17.43,0,.6-.06.6-.4,0-.6-.92-.26-1.69-.83Z"/>
  <path class="st0" d="M297.33,37.48c-.8-.6-.89-1.41-.89-2.7v-12.45c0-1.18,0-1.89.66-2.47.69-.57,1.66-.4,1.66-.97,0-.2-.17-.37-.46-.37-.2,0-1.23.17-3.18.17-1.43,0-2.41-.17-2.87-.17-.4,0-.58.09-.58.37,0,.63.86.26,1.64.86.8.6.86,1.35.86,2.58h0v12.42c0,1.15-.03,1.86-.77,2.52-.72.63-1.55.52-1.55,1.06,0,.23.17.37.46.37.23,0,1.23-.17,3.01-.17,1.17,0,2.18.17,3.1.17.43,0,.6-.06.6-.4,0-.6-.92-.26-1.69-.83Z"/>
</svg>