<?xml version="1.0" encoding="UTF-8"?>
<svg id="Camada_1" xmlns="http://www.w3.org/2000/svg" version="1.1" viewBox="0 0 225 55">
  <!-- Generator: Adobe Illustrator 29.3.1, SVG Export Plug-In . SVG Version: 2.1.0 Build 151)  -->
  <defs>
    <style>
      .st0 {
        fill: #1d1d1d;
      }
    </style>
  </defs>
  <path class="st0" d="M60.4,2.5h0c-13.8,0-25,11.2-25,25s11.2,25,25,25,25-11.2,25-25S74.2,2.5,60.4,2.5ZM71.9,38.6c-.4.7-1.4,1-2.2.5-5.9-3.6-13.3-4.4-22-2.4-.8.2-1.7-.3-1.9-1.2s.3-1.7,1.2-1.9c9.5-2.2,17.7-1.3,24.3,2.8.7.4,1,1.4.5,2.2h0ZM74.9,31.8c-.6.9-1.8,1.2-2.7.7-6.7-4.1-17-5.3-24.9-2.9-1,.3-2.1-.3-2.4-1.3-.3-1,.3-2.1,1.3-2.4,9.1-2.7,20.4-1.4,28.1,3.3.9.5,1.2,1.7.6,2.7h0s0,0,0,0ZM78.3,23.8c-.6,1.1-2.1,1.5-3.2.8h0c-8.1-4.8-21.4-5.2-29.1-2.9-1.2.4-2.5-.3-2.9-1.6-.4-1.2.3-2.5,1.6-2.9,8.8-2.7,23.5-2.2,32.8,3.3,1.1.7,1.5,2.1.8,3.2Z"/>
  <path class="st0" d="M155.3,22.9h-4.2v-4.3c0-.1-.1-.3-.3-.3h-3.8c-.1,0-.3.1-.3.3v4.3h-1.8c-.1,0-.3.1-.3.3v3.3c0,.1.1.3.3.3h1.8v8.5c0,3.4,1.7,5.1,5.1,5.1s2.5-.3,3.6-.9c0,0,.1-.1.1-.2v-3.1c0,0,0-.2-.1-.2,0,0-.2,0-.3,0-.7.4-1.4.5-2.2.5-1.2,0-1.8-.6-1.8-1.8v-7.9h4.2c.1,0,.3-.1.3-.3v-3.3c0-.2-.1-.3-.3-.3h0Z"/>
  <path class="st0" d="M135.2,22.5c-5.1,0-9.1,3.9-9.1,9s4,8.9,9.1,8.9,9.2-3.9,9.2-9-4-8.9-9.1-8.9ZM135.2,36.6c-2.7,0-4.8-2.2-4.8-5.1s2-5,4.7-5,4.8,2.2,4.8,5.1c0,2.9-2,5-4.8,5h0Z"/>
  <path class="st0" d="M189.6,23c0,0-.1-.1-.2-.1h-4c-.1,0-.2,0-.3.2l-4.1,11.6-4.4-11.6c0-.1-.1-.2-.3-.2h-6.4v-.5c0-1.6.6-2.2,1.9-2.2s1.4.1,2.1.4c0,0,.2,0,.3,0,0,0,.1-.1.1-.2v-3.2c0-.1,0-.2-.2-.3-.8-.2-1.7-.4-3.2-.4-3.5,0-5.4,2-5.4,5.7v.8h-1.8c-.1,0-.3.1-.3.3v3.3c0,.1.1.3.3.3h1.8v13.1c0,.1.1.3.3.3h3.8c.1,0,.3-.1.3-.3v-13.1h3.6l5.4,13.1c-.6,1.4-1.2,1.6-2.1,1.6s-1.4-.2-2.1-.6c0,0-.1,0-.2,0,0,0-.1,0-.2.1l-1.3,2.8c0,.1,0,.3.1.4,1.4.7,2.6,1,4.1,1,2.8,0,4.4-1.3,5.7-4.8l6.6-17.1c0,0,0-.2,0-.3h0Z"/>
  <path class="st0" d="M161.4,22.9h-3.8c-.1,0-.3.1-.3.3v16.6c0,.1.1.3.3.3h3.8c.1,0,.3-.1.3-.3v-16.6c0-.2-.1-.3-.3-.3h0Z"/>
  <path class="st0" d="M98.4,26.8c-4.3-1-5-1.7-5-3.2s1.3-2.4,3.3-2.4,3.8.7,5.8,2.2c0,0,.1,0,.2,0,0,0,.1,0,.2-.1l2.1-2.9c0,0,0-.1,0-.2,0,0,0-.1-.1-.2-2.4-1.9-5.1-2.8-8.2-2.8-4.6,0-7.8,2.8-7.8,6.7s2.8,5.7,7.6,6.9c4.1.9,4.8,1.7,4.8,3.1s-1.4,2.5-3.6,2.5-4.5-.8-6.8-2.8c0,0-.1,0-.2,0,0,0-.1,0-.2,0l-2.3,2.8c0,.1,0,.3,0,.4,2.6,2.4,5.9,3.6,9.4,3.6s8.1-2.7,8.1-6.9c0-3.5-2.2-5.5-7.4-6.7h0Z"/>
  <path class="st0" d="M116.9,22.5c-2.1,0-3.9.9-5.4,2.6v-1.9c0-.1-.1-.3-.3-.3h-3.8c-.1,0-.3.1-.3.3v21.6c0,.1.1.3.3.3h3.8c.1,0,.3-.1.3-.3v-6.8c1.4,1.6,3.2,2.4,5.4,2.4,4,0,8-3.1,8-8.9,0-5.9-4.1-8.9-8-8.9h0ZM116,36.5c-2.6,0-4.6-2.2-4.6-5.1s2-5.1,4.6-5.1,4.5,2.1,4.5,5.1-1.9,5.1-4.5,5.1Z"/>
  <path class="st0" d="M159.6,15.3c-1.5,0-2.7,1.2-2.7,2.7s1.2,2.7,2.7,2.7,2.7-1.2,2.7-2.7-1.2-2.7-2.7-2.7Z"/>
</svg>